Coordinates
version=1
nRows=19
nColumns=24
inDegrees=yes

Units are S.I. units (second, meters, Newtons, ...)
Angles are in degrees.

endheader
time	pelvis_tilt	pelvis_list	pelvis_rotation	pelvis_tx	pelvis_ty	pelvis_tz	hip_flexion_r	hip_adduction_r	hip_rotation_r	knee_angle_r	ankle_angle_r	subtalar_angle_r	mtp_angle_r	hip_flexion_l	hip_adduction_l	hip_rotation_l	knee_angle_l	ankle_angle_l	subtalar_angle_l	mtp_angle_l	lumbar_extension	lumbar_bending	lumbar_rotation
      0.70016667	      3.14929097	      3.53641439	     -1.15691047	     -0.48548657	      1.02446699	      0.29671308	      8.20523051	     -1.39161907	     -2.78948655	    -18.20281812	      7.59663579	     -4.83878366	     10.48066229	     13.74161010	      2.17892817	     -7.08403206	    -63.97863701	      0.46711735	    -18.21990679	     -0.17172431	    -11.54784504	     -3.56953435	      5.17493725
      0.70433333	      3.15458252	      3.62985976	     -1.32492532	     -0.48037432	      1.02517796	      0.29707890	      7.76889613	     -1.48378231	     -2.74238721	    -17.94246127	      7.74769193	     -4.65935975	     10.49981699	     14.17333909	      2.29404560	     -7.22446007	    -63.38582689	      0.68395070	    -17.99521145	     -0.17916749	    -11.57505507	     -3.68811961	      5.44544862
      0.70850000	      3.14390344	      3.73921088	     -1.51037029	     -0.47525093	      1.02583912	      0.29744074	      7.35809382	     -1.59617718	     -2.68417743	    -17.69127460	      7.86806799	     -4.49027320	     10.52187667	     14.59976754	      2.42450930	     -7.37598639	    -62.71500307	      0.88562364	    -17.74747555	     -0.17675448	    -11.57778514	     -3.81957200	      5.65759818
      0.71266667	      3.11862169	      3.84177053	     -1.70150579	     -0.47012801	      1.02642279	      0.29779692	      6.96777279	     -1.70536823	     -2.63426325	    -17.44636420	      7.99460860	     -4.30830369	     10.54720057	     15.02872866	      2.54000191	     -7.53278987	    -61.99141618	      1.08719120	    -17.45655498	     -0.16394226	    -11.56041411	     -3.94850175	      5.87052069
      0.71683333	      3.08911673	      3.94181727	     -1.89857040	     -0.46498944	      1.02696170	      0.29813841	      6.58097477	     -1.81458717	     -2.57958994	    -17.19697757	      8.08363842	     -4.14265530	     10.56546141	     15.44294203	      2.64938268	     -7.69187996	    -61.20587479	      1.26719731	    -17.14783021	     -0.14814042	    -11.53265303	     -4.06747478	      6.03076710
      0.72100000	      3.08716136	      4.01472742	     -2.09265311	     -0.45985714	      1.02748036	      0.29847363	      6.15889110	     -1.89969760	     -2.54635593	    -16.93959434	      8.24955788	     -3.92752777	     10.59688991	     15.81548805	      2.72053759	     -7.84773854	    -60.38411815	      1.49173463	    -16.78064441	     -0.11633599	    -11.54753970	     -4.16423706	      6.31044478
      0.72516667	      3.07506216	      4.09942715	     -2.29499300	     -0.45471032	      1.02795560	      0.29879285	      5.75245247	     -2.00156514	     -2.50802035	    -16.68784632	      8.38148857	     -3.71699457	     10.63138279	     16.17691084	      2.80454982	     -8.00491902	    -59.49223824	      1.67813561	    -16.42102195	     -0.07633554	    -11.54340151	     -4.27040336	      6.54834812
      0.72933333	      3.04180921	      4.17446573	     -2.49948604	     -0.44955990	      1.02834481	      0.29911219	      5.37199211	     -2.09315512	     -2.46321459	    -16.44015220	      8.46942381	     -3.53936383	     10.65444525	     16.54524918	      2.87172229	     -8.16216060	    -58.55128375	      1.83256794	    -16.05609728	     -0.04539360	    -11.50759751	     -4.36319914	      6.71388821
      0.73350000	      3.04992689	      4.24120276	     -2.70709665	     -0.44441585	      1.02875177	      0.29942197	      4.94268508	     -2.18210195	     -2.43014802	    -16.18393975	      8.60096106	     -3.32951130	     10.68038731	     16.85015866	      2.92591326	     -8.32042112	    -57.56016810	      2.00570845	    -15.65098275	     -0.00877992	    -11.52728374	     -4.45321936	      6.92850869
      0.73766667	      3.04164519	      4.27355870	     -2.90379905	     -0.43925916	      1.02905253	      0.29970601	      4.52756881	     -2.23681009	     -2.41602388	    -15.92950311	      8.79351358	     -3.07943983	     10.72671448	     17.16361343	      2.93843389	     -8.46539740	    -56.55153995	      2.21476623	    -15.23596362	      0.05960745	    -11.52982389	     -4.49670131	      7.25846080
      0.74183333	      3.00262701	      4.33420365	     -3.11314039	     -0.43409706	      1.02928931	      0.29999338	      4.15922892	     -2.32196436	     -2.38029491	    -15.69249862	      8.89736084	     -2.89417727	     10.75545565	     17.48404152	      2.97909353	     -8.62055651	    -55.46313509	      2.32965989	    -14.85356341	      0.10459222	    -11.48667917	     -4.57356190	      7.42903823
      0.74600000	      2.99582262	      4.35549974	     -3.30932794	     -0.42892756	      1.02949113	      0.30026018	      3.74306702	     -2.37012711	     -2.36839029	    -15.44172808	      9.09227181	     -2.64620312	     10.80563325	     17.76033024	      2.97310265	     -8.76117767	    -54.36447834	      2.50526251	    -14.43439564	      0.18543634	    -11.49002510	     -4.60903981	      7.73347435
      0.75016667	      2.97328338	      4.39318459	     -3.51218878	     -0.42375196	      1.02965323	      0.30051840	      3.35244364	     -2.43655368	     -2.34042426	    -15.20050290	      9.20051013	     -2.46570934	     10.83614265	     18.02642985	      2.98754837	     -8.89891393	    -53.19131726	      2.58350880	    -14.05943047	      0.23637630	    -11.46598465	     -4.65991078	      7.89739336
      0.75433333	      2.94291740	      4.40280918	     -3.70285686	     -0.41858045	      1.02972402	      0.30075864	      2.96724747	     -2.47363764	     -2.32143903	    -14.96092344	      9.35790629	     -2.25490210	     10.87136481	     18.29248384	      2.96549425	     -9.02736788	    -52.00424305	      2.69163468	    -13.65190278	      0.29662217	    -11.43910419	     -4.67929925	      8.12067035
      0.75850000	      2.93038636	      4.41541718	     -3.89217069	     -0.41339204	      1.02979313	      0.30099138	      2.56005671	     -2.51809759	     -2.30772423	    -14.71656179	      9.51399327	     -2.04966524	     10.90676596	     18.51453813	      2.94959654	     -9.14750674	    -50.76302729	      2.76243818	    -13.27610067	      0.35902164	    -11.43376840	     -4.70314366	      8.34214163
      0.76266667	      2.90433248	      4.40317234	     -4.06950791	     -0.40820965	      1.02978270	      0.30119901	      2.16538082	     -2.53483215	     -2.29355402	    -14.47345288	      9.67105201	     -1.85084601	     10.94305043	     18.73906307	      2.90653779	     -9.25171624	    -49.49828751	      2.81789772	    -12.90556581	      0.42596924	    -11.41181968	     -4.69709063	      8.56177519
      0.76683333	      2.87110622	      4.39083670	     -4.23972794	     -0.40300895	      1.02971486	      0.30138766	      1.77896457	     -2.55286826	     -2.28104712	    -14.23569222	      9.83139630	     -1.66509096	     10.97877536	     18.95268028	      2.86564114	     -9.34336684	    -48.19488658	      2.84408784	    -12.55911885	      0.49452262	    -11.38476039	     -4.68668747	      8.76675925
      0.77100000	      2.84433318	      4.36928930	     -4.40377894	     -0.39781872	      1.02960641	      0.30156667	      1.38662058	     -2.56248615	     -2.27161340	    -14.00089855	      9.98967991	     -1.48305542	     11.01469945	     19.14229999	      2.81335754	     -9.42973101	    -46.85630757	      2.84129058	    -12.21790071	      0.56686945	    -11.37170200	     -4.66736950	      8.96791881
      0.77516667	      2.80350429	      4.34263685	     -4.55626399	     -0.39261276	      1.02943721	      0.30172204	      1.00953067	     -2.56627857	     -2.26369332	    -13.77266333	     10.15387954	     -1.31411900	     11.04883809	     19.32787984	      2.76144320	     -9.49228836	    -45.47987563	      2.81004750	    -11.90481419	      0.63902016	    -11.33475708	     -4.64202107	      9.15177181
